<svg width="127" height="118" viewBox="0 0 127 118" fill="none" xmlns="http://www.w3.org/2000/svg">
<path d="M31.3019 18.2499C29.8966 16.4965 27.3655 16.0138 25.8394 15.8818C25.9262 16.0779 25.9942 16.2929 26.0245 16.5417C26.0396 16.6813 26.0471 16.8132 26.0622 16.9489C26.0962 17.0206 26.1076 17.0433 26.1038 17.2921C27.7282 17.4694 29.3942 18.0123 30.1497 18.9588C30.7239 19.6753 30.875 21.572 30.5312 22.8617C30.1233 24.3775 29.6586 25.456 29.2204 26.4477C29.8173 26.444 30.3537 26.4816 30.9544 26.4778C31.3284 25.5125 31.6985 24.4001 32.0423 23.1181C32.5674 21.1572 32.3181 19.5169 31.3019 18.2499Z" fill="#0098FC"/>
<path d="M20.5963 60.7393C20.5811 60.7167 20.566 60.6903 20.5509 60.6677C20.2563 60.2341 20.2374 60.3208 20.1694 60.0078C18.3825 60.3698 17.2908 61.3653 16.7657 62.0742C16.3162 62.6813 15.9195 64.1971 16.3388 64.0878C16.3388 64.0878 17.0263 63.277 16.913 63.4128C17.0868 63.2054 18.8321 61.2144 21.0609 61.3577C20.7965 61.1692 20.8909 61.1918 20.5963 60.7393Z" fill="#2B2B2B"/>
<path d="M26.104 23.4719C25.9982 24.03 25.8698 24.6258 25.73 25.2329C27.1126 25.5723 28.7106 25.727 30.1348 25.7797C30.6787 24.3242 31.7252 21.1567 31.151 19.7162C30.3463 17.6988 28.1137 17.1181 26.8822 16.9521C27.1542 18.8074 26.6857 21.315 26.104 23.4719Z" fill="white"/>
<path d="M6.80759 47.4626C6.64515 46.3163 6.68293 45.2793 6.90203 44.6307C7.33269 43.3637 8.19023 42.5794 8.58311 42.2739C8.704 42.1797 8.84754 42.1193 8.99865 42.1005C10.9328 41.878 13.0144 42.1758 14.1628 42.3945C14.4461 42.4473 14.5141 42.666 14.3063 42.8621C13.7737 43.3674 13.0597 44.3404 13.3468 45.7695C13.3581 45.8298 13.3883 45.8939 13.4261 45.958C16.5427 46.1277 19.5913 47.3155 21.8655 49.5403C21.8995 49.5743 21.9108 49.6195 21.9108 49.6609C22.0619 49.7854 22.2735 49.9627 22.4888 50.2002C22.621 50.3511 22.5606 50.5886 22.3717 50.6565C22.0506 50.7734 21.601 50.9317 21.3215 50.9845C21.1137 51.026 20.8833 51.0637 20.6377 51.1014C20.6377 51.3729 20.6377 51.6482 20.6415 51.9197C21.5746 51.7462 22.4926 51.5049 23.3652 51.1806C24.6459 49.9928 25.0576 48.0357 24.5741 46.1956C24.4608 45.7657 24.287 45.2416 24.0528 44.7212C23.7392 44.4799 23.4068 44.2574 23.0328 44.0651C22.0392 43.556 21.0004 43.2317 19.9691 42.8169C19.8633 42.7754 19.8973 42.6283 19.9993 42.6095C20.8191 42.4587 21.7672 42.5492 22.6966 42.8094C23.2481 42.964 23.7883 43.1902 24.2983 43.4579C25.3221 43.2581 26.2627 42.8847 27.2298 42.3003C29.0015 41.2293 31.7441 35.8031 32.7226 31.6514C32.4166 30.539 31.8612 28.6423 31.4306 27.3602C29.7986 27.4093 27.7511 27.2395 25.8736 26.8436C25.579 26.7833 24.8914 26.6023 24.525 26.5005C24.5174 27.7335 24.5703 30.1733 25.3145 30.26C26.7122 30.4221 28.2536 30.6107 29.1564 30.7238C29.5984 30.7804 29.9195 31.165 29.8893 31.6062L29.8817 31.7608C29.8062 33.1107 28.4878 36.1425 24.9027 37.2436C18.9264 39.0838 12.8519 36.7609 12.8519 36.7609C7.42336 33.5896 6.10872 25.4182 5.76495 23.744C5.76117 23.7213 5.7574 23.7025 5.75362 23.6837C5.75362 23.6761 5.74984 23.6686 5.74984 23.661V23.6573C5.70829 23.4348 5.70829 23.299 5.70829 23.299C5.70829 23.3028 5.73095 23.3405 5.76873 23.3971C6.19561 21.9378 11.6808 18.9927 12.8783 18.28L12.935 18.2084C12.935 18.2084 12.9388 18.2235 12.9426 18.2424C12.969 18.2235 12.9879 18.2122 13.0106 18.2009C13.0748 18.1556 13.1088 18.1292 13.1088 18.1292C13.1088 18.1292 13.0634 18.2839 12.9917 18.5365C12.9539 20.9348 13.1957 23.3518 14.2345 27.5299L12.6706 29.8942C13.7246 30.0979 15.8061 30.2449 17.8045 30.1016C17.9594 30.0903 19.3042 28.0767 19.3344 27.6355C19.6706 22.7108 19.1266 17.3637 18.594 14.6902C18.4618 14.0341 16.8298 13.2799 16.1007 13.4609C12.4666 14.3583 7.24204 16.5191 1.84372 20.4031C1.64728 22.7297 1.76438 26.1234 2.37637 29.2381C2.49348 29.8301 3.0979 36.727 8.22044 40.298C8.73421 40.2829 9.24422 40.3093 9.75043 40.3885C10.5626 40.5129 11.3673 40.7505 12.1719 41.1125C12.2664 41.154 12.2248 41.301 12.119 41.2897C10.9668 41.1313 9.78819 41.1125 8.62844 41.2332C6.26739 42.7189 5.37963 45.6073 6.3165 48.0848C7.1627 48.9219 8.13357 49.6271 9.17999 50.2078C9.18377 49.9024 9.19132 49.6044 9.1951 49.3065C8.51133 48.9407 7.82758 48.5147 7.15137 48.0207C6.96249 47.8887 6.83781 47.6851 6.80759 47.4626Z" fill="white"/>
<path d="M20.3921 15.1009C20.9852 18.2043 21.3857 22.8009 20.9172 27.8727C20.887 28.2007 20.1277 29.5092 19.4326 30.4482C20.0597 30.6782 20.9437 30.9535 21.9674 31.1383C21.9561 29.4188 22.3679 27.6615 22.791 26.4096C22.9723 25.8704 23.1574 25.4028 23.3161 25.0333L23.6561 24.4564C23.8261 24.5582 24.0187 24.6487 24.2152 24.7354C25.0651 21.2738 25.5902 19.0791 25.2691 16.7751C24.982 16.1001 24.5249 15.7494 24.1132 15.5345C23.1385 15.0217 21.635 15.0217 20.3921 15.1009Z" fill="white"/>
<path d="M7.19272 47.0171C9.15335 46.1913 11.3028 45.8407 13.4221 45.9576C13.3844 45.8935 13.3579 45.8331 13.3428 45.769C13.0557 44.3436 13.7697 43.3669 14.3023 42.8616C14.5101 42.6618 14.4421 42.4468 14.1588 42.394C13.0104 42.1791 10.9326 41.8813 8.99469 42.1C8.8398 42.1188 8.70002 42.1792 8.57913 42.2734C8.18625 42.5789 7.32871 43.3632 6.89805 44.6302C6.67895 45.2788 6.64495 46.312 6.80361 47.4621C6.83383 47.6846 6.9585 47.8882 7.13983 48.0202C7.81604 48.5142 8.49981 48.9402 9.18357 49.306C9.20246 48.5104 9.2289 47.7487 9.26667 47.0473C8.58669 47.0586 7.90293 47.0888 7.21917 47.134C7.15495 47.1378 7.1285 47.0435 7.19272 47.0171Z" fill="#DDDDDD"/>
<path d="M22.3638 50.66C22.5527 50.5921 22.6169 50.3508 22.4809 50.2037C22.2694 49.9662 22.0578 49.7889 21.903 49.6644C21.8992 49.7662 21.8161 49.8681 21.7027 49.8002C21.3703 49.6117 21.0341 49.4345 20.6979 49.2686C20.6525 49.8907 20.6337 50.4978 20.6299 51.1049C20.8754 51.0672 21.1059 51.0257 21.3136 50.988C21.5932 50.9352 22.0427 50.7769 22.3638 50.66Z" fill="#DDDDDD"/>
<path d="M12.8516 36.76C12.8516 36.76 18.9224 39.0828 24.9024 37.2427C28.4837 36.1416 29.8059 33.1098 29.8814 31.7598L29.889 31.6053C29.9154 31.1641 29.5943 30.7757 29.1561 30.7229C28.2533 30.6097 26.7119 30.4212 25.3142 30.2591C24.57 30.1723 24.5171 27.7364 24.5247 26.4995C24.4831 26.4882 24.4416 26.4769 24.4114 26.4693C23.7049 27.8646 23.1118 30.9114 23.482 32.6272C23.9429 32.7214 24.2413 32.7931 24.2565 32.8006C25.4918 33.1664 28.2041 33.3625 29.4092 33.3361C29.4092 33.3361 27.0897 35.0895 24.4378 34.3429C17.8231 32.4726 14.8236 35.3837 14.5931 36.7148C14.5931 36.7148 14.6573 33.5849 17.1317 32.7176C17.4831 32.5932 18.5068 32.3293 19.7535 32.2727C18.8468 32.0012 18.1555 31.7147 17.7702 31.5412C16.4329 31.6958 15.122 31.5826 14.1436 31.477C13.5505 31.4129 13.014 31.3262 12.5456 31.2282C12.1678 31.149 11.8354 31.0623 11.5445 30.9756C11.2839 30.3383 11.0723 29.701 10.8985 29.0826V29.0788C10.7437 28.5283 10.619 27.9928 10.5208 27.4838C10.5094 27.4234 10.4981 27.3668 10.4905 27.3065C6.81107 26.6579 5.96109 24.6443 5.76465 23.7393C6.10842 25.4173 7.41928 33.5925 12.8516 36.76Z" fill="#DDDDDD"/>
<path d="M12.9275 18.2077L12.8708 18.2794C11.6733 18.9921 6.18811 21.9371 5.76123 23.3964C6.02945 23.8188 7.29873 25.5646 10.2982 26.1001C10.2189 25.4741 10.1774 24.9274 10.1547 24.4975C10.1849 24.1355 10.2227 23.7923 10.2605 23.4756C10.2756 23.3549 10.2907 23.2343 10.302 23.1212C10.6344 20.1233 12.5422 18.5396 12.9993 18.2002C12.9766 18.2153 12.9577 18.2266 12.9313 18.2417C12.9275 18.2191 12.9275 18.2077 12.9275 18.2077Z" fill="#DDDDDD"/>
<path d="M5.74988 23.6837C5.74988 23.6761 5.74609 23.6648 5.74609 23.6572V23.661C5.74609 23.6648 5.74988 23.6761 5.74988 23.6837Z" fill="#BFBFBF"/>
<path d="M12.9839 18.5352C13.0557 18.2788 13.101 18.1279 13.101 18.1279C13.0859 18.1656 11.5559 20.4545 11.6201 22.7019C11.6352 23.1657 11.6806 24.3158 11.7637 24.7834C11.7826 25.0021 11.8808 25.5602 11.911 25.8166C12.0281 26.8084 12.2397 28.6071 12.6552 29.8929H12.659L14.223 27.5286C13.1879 23.3505 12.9423 20.9335 12.9839 18.5352Z" fill="#DDDDDD"/>
<path d="M9.1686 50.2071C8.12218 49.6226 7.15133 48.9212 6.30512 48.0841C5.36826 45.6066 6.25601 42.7182 8.61707 41.2325C9.77682 41.1118 10.9555 41.1306 12.1077 41.289C12.2134 41.3041 12.255 41.157 12.1605 41.1118C11.3559 40.7498 10.5512 40.5123 9.73903 40.3878C9.23282 40.3086 8.72284 40.2822 8.20907 40.2973C3.0903 36.7263 2.48208 29.8294 2.36497 29.2374C1.75676 26.1189 1.63966 22.729 1.83233 20.4024C7.22687 16.5184 12.4514 14.3577 16.0893 13.4602C16.8184 13.2792 18.4504 14.0334 18.5826 14.6895C19.1153 17.363 19.6592 22.7101 19.323 27.6348C19.2928 28.076 17.948 30.0896 17.7931 30.101C15.7947 30.2443 13.7132 30.0972 12.6592 29.8935H12.6554C12.2399 28.6115 12.0283 26.809 11.9112 25.8172C11.881 25.5608 11.779 25.0027 11.7639 24.784C11.6808 24.3127 11.6354 23.1663 11.6203 22.7025C11.5561 20.4551 13.0861 18.1663 13.1012 18.1285C13.1012 18.1285 13.0634 18.1511 13.003 18.2002C12.5459 18.5395 10.6381 20.1233 10.3057 23.1211C10.2944 23.2343 10.2792 23.3549 10.2641 23.4756C10.2264 23.7923 10.1848 24.1355 10.1583 24.4975C10.181 24.9273 10.2226 25.4741 10.3019 26.1001C7.29864 25.5646 6.03311 23.8187 5.76489 23.3964C5.72712 23.3398 5.70824 23.3021 5.70446 23.2984C5.70446 23.2984 5.70445 23.4341 5.74601 23.6566C5.74601 23.6641 5.74979 23.6754 5.74979 23.683C5.75357 23.7018 5.75736 23.7244 5.76113 23.7433C5.95757 24.6445 6.80754 26.6581 10.487 27.3105C10.4983 27.3708 10.5059 27.4275 10.5172 27.4878C10.6155 27.9969 10.7401 28.5323 10.895 29.0829V29.0866C11.0688 29.705 11.2803 30.3423 11.541 30.9796C11.8319 31.0663 12.1643 31.153 12.5421 31.2322C13.0105 31.3303 13.5432 31.4207 14.1401 31.4811C15.1185 31.5829 16.4331 31.6961 17.7666 31.5452C18.152 31.7187 18.8433 32.0015 19.7499 32.2767C18.5033 32.3333 17.4795 32.5972 17.1282 32.7217C14.6538 33.589 14.5896 36.7188 14.5896 36.7188C14.82 35.3877 17.8195 32.4766 24.4343 34.3469C27.0862 35.0973 29.4057 33.3401 29.4057 33.3401C28.2006 33.3627 25.4882 33.1666 24.2529 32.8046C24.234 32.8009 23.9394 32.7254 23.4785 32.6312C23.1083 30.9154 23.7014 27.8686 24.4078 26.4734C24.4418 26.4809 24.4796 26.4923 24.5211 26.5036C24.8876 26.6054 25.5789 26.7826 25.8698 26.8467C27.7435 27.2426 29.7948 27.4123 31.4268 27.3633C31.8537 28.6492 32.4127 30.5421 32.7187 31.6545C31.7403 35.8024 28.9977 41.2324 27.226 42.3033C26.2589 42.8878 25.3182 43.2612 24.2945 43.461C23.7845 43.1933 23.2443 42.967 22.6927 42.8124C21.7596 42.5485 20.8152 42.4617 19.9955 42.6126C19.8935 42.6314 19.8595 42.7785 19.9652 42.82C20.9966 43.2386 22.0354 43.5591 23.0289 44.0682C23.4029 44.2605 23.7354 44.4867 24.0489 44.7243C24.2794 45.2447 24.4531 45.7688 24.5703 46.1987C25.0538 48.0388 24.642 49.9959 23.3614 51.1837C22.4887 51.508 21.5746 51.7493 20.6377 51.9228C20.6415 52.3639 20.6528 52.8089 20.6604 53.2539C20.7019 53.2463 20.7434 53.2425 20.785 53.235C21.9183 53.0276 23.0252 52.7222 24.0792 52.3149C24.7894 51.7229 25.3371 50.9612 25.6885 50.0864C25.9869 49.3436 26.1456 48.5215 26.138 47.6505C26.1342 47.2281 26.0775 46.7529 25.9793 46.2552C25.8622 45.6669 25.6771 45.0524 25.4316 44.4603C26.3004 44.3208 27.0144 44.0756 27.7737 43.6156C29.9346 42.3109 32.0161 38.6608 33.5461 34.5279C33.8747 33.6418 34.2185 32.5406 34.4943 31.6432C34.2185 30.5836 33.8823 29.4636 33.5574 28.4455C33.4932 28.2494 33.4327 28.0609 33.3723 27.8723C33.1003 27.039 32.8472 26.3037 32.6583 25.772C32.0463 25.7984 31.2605 25.8098 30.3917 25.7834C30.3086 25.7796 30.2217 25.7758 30.1386 25.772C28.7144 25.7193 27.1164 25.5684 25.7338 25.2253C25.8736 24.6182 26.002 24.0223 26.1078 23.4642C26.6933 21.3073 27.158 18.7997 26.886 16.9407C26.8633 16.7974 26.8406 16.6579 26.8104 16.5259C26.6253 15.7039 26.274 15.0365 25.6733 14.6405C25.3069 14.3954 24.9102 14.2069 24.4985 14.0522C23.2216 13.5809 21.7899 13.5018 20.5961 13.5395C20.4072 13.547 20.2297 13.5545 20.0597 13.5658C19.8141 12.7211 17.7628 11.6427 17.268 11.7219C13.4147 12.3667 8.52263 14.1164 2.6672 18.0531C1.86256 18.5924 1.039 19.173 0.19658 19.799C0.0870265 20.6851 0.0190243 21.6392 0.00391357 22.6422C-0.0300857 24.6898 0.155033 26.9825 0.653688 29.5316C0.835018 30.4479 1.57167 34.0905 3.63429 37.7482C4.4805 39.2453 5.64402 40.2332 6.86043 40.8931C6.58088 41.1495 6.32399 41.4248 6.09733 41.7152C5.1378 42.9407 4.63159 44.4339 4.6127 45.9536C4.60137 46.9491 4.80158 47.9521 5.2209 48.8985C6.02933 49.7319 6.93977 50.4522 7.93331 51.0593C8.33374 51.3044 8.74549 51.5268 9.1686 51.7342C9.16104 51.2289 9.16104 50.7124 9.1686 50.2071ZM25.2691 16.7748C25.5902 19.0788 25.0614 21.2697 24.2151 24.7351C24.0187 24.6483 23.8298 24.5578 23.6561 24.456L23.3161 25.033C23.1574 25.4025 22.9723 25.8738 22.791 26.4093C22.3716 27.6612 21.9561 29.4222 21.9674 31.1379C20.9399 30.9532 20.0597 30.6779 19.4326 30.4478C20.1315 29.5089 20.887 28.2004 20.9172 27.8723C21.3857 22.8006 20.9814 18.204 20.3921 15.1006C21.635 15.0176 23.1347 15.0176 24.1131 15.5304C24.5287 15.7491 24.9858 16.0998 25.2691 16.7748Z" fill="#0098FC"/>
<path d="M33.2627 69.3564C33.2627 69.3489 33.2665 69.3414 33.2665 69.3301C33.2665 69.3339 33.2665 69.3414 33.2627 69.3452C33.2627 69.349 33.2627 69.3527 33.2627 69.3564Z" fill="#828282"/>
<path d="M16.7314 63.9068C15.1939 60.6865 14.9899 52.3153 15.0125 47.4471C13.781 47.2322 12.5306 47.1115 11.2688 47.0625C10.9968 52.2474 11.1593 59.9626 13.0255 64.71C13.475 65.3096 13.9623 65.9204 14.495 66.5275C18.9602 71.6596 26.542 76.0678 33.2059 77.512C33.2361 77.6817 33.2739 77.8477 33.3041 78.0136C33.2021 77.4819 33.0926 76.8596 33.0472 76.4222C32.9452 75.4569 32.9226 74.4953 32.949 73.53C32.949 73.5752 32.9452 73.6243 32.9415 73.6696C30.7277 72.9569 18.8809 68.4092 16.7314 63.9068Z" fill="white"/>
<path d="M33.4215 68.4355C33.4101 68.4846 33.4026 68.5337 33.395 68.5828C33.4026 68.5337 33.4101 68.4846 33.4215 68.4355Z" fill="url(#paint0_linear_562_3003)"/>
<path d="M33.0021 72.3115C32.9757 72.7188 32.9606 73.1298 32.9492 73.537C32.9568 73.1298 32.9757 72.7225 33.0021 72.3115Z" fill="url(#paint1_linear_562_3003)"/>
<path d="M33.2627 69.3475C29.5795 68.7555 24.1811 65.422 21.7861 63.4084C20.6603 62.4657 19.765 61.5644 19.187 60.9045C18.6204 57.0809 18.4957 52.5408 18.6317 48.3967C17.4493 47.9743 16.2404 47.6651 15.0089 47.4502C14.9862 52.3183 15.1902 60.6858 16.7278 63.9099C18.8773 68.4085 30.7241 72.9562 32.9378 73.6802C32.9378 73.6349 32.9416 73.5859 32.9454 73.5406C32.9567 73.1334 32.9718 72.7223 32.9983 72.3151C33.0587 71.3271 33.1154 70.3354 33.2627 69.3549C33.2627 69.3512 33.2627 69.3475 33.2627 69.3475C33.2665 69.3475 33.2627 69.3475 33.2627 69.3475Z" fill="#828282"/>
<path d="M33.2627 69.3475C29.5795 68.7555 24.1811 65.422 21.7861 63.4084C20.6603 62.4657 19.765 61.5644 19.187 60.9045C18.6204 57.0809 18.4957 52.5408 18.6317 48.3967C17.4493 47.9743 16.2404 47.6651 15.0089 47.4502C14.9862 52.3183 15.1902 60.6858 16.7278 63.9099C18.8773 68.4085 30.7241 72.9562 32.9378 73.6802C32.9378 73.6349 32.9416 73.5859 32.9454 73.5406C32.9567 73.1334 32.9718 72.7223 32.9983 72.3151C33.0587 71.3271 33.1154 70.3354 33.2627 69.3549C33.2627 69.3512 33.2627 69.3475 33.2627 69.3475C33.2665 69.3475 33.2627 69.3475 33.2627 69.3475Z" fill="#0098FC"/>
<path d="M33.4066 78.5214C33.3726 78.3554 33.3386 78.1858 33.3084 78.0199C33.2782 77.854 33.2404 77.6843 33.2102 77.5184C26.5463 76.0741 18.9683 71.666 14.4993 66.5339C13.9666 65.923 13.4793 65.3122 13.0298 64.7164C11.1636 59.9689 11.0011 52.25 11.2731 47.0688C10.6082 47.0424 9.94338 47.0386 9.27473 47.05C9.23695 47.7513 9.2105 48.513 9.19161 49.3087C9.18406 49.6066 9.18029 49.9045 9.17651 50.21C9.16895 50.719 9.16895 51.2356 9.16895 51.7522C9.1765 54.2786 9.29362 56.8315 9.56184 58.5699C9.91317 60.8399 10.3287 63.2269 11.2807 65.5724C11.802 66.2775 12.3724 67.0015 12.9995 67.7255C14.1706 69.0792 15.6061 70.5121 17.3363 71.896C20.8307 74.6864 27.4907 78.3517 33.6257 79.5508C33.5539 79.2114 33.4822 78.8721 33.4104 78.5327C33.4066 78.5251 33.4066 78.5251 33.4066 78.5214Z" fill="#0098FC"/>
<path d="M20.6341 51.923C20.6303 51.6515 20.6303 51.3763 20.6303 51.1048C20.6341 50.5014 20.653 49.8906 20.6983 49.2684C20.0221 48.9328 19.3308 48.6462 18.6319 48.3936C18.4959 52.5377 18.6206 57.0778 19.1872 60.9014C19.7652 61.5613 20.6643 62.4588 21.7863 63.4053C24.1814 65.4189 29.5797 68.7523 33.2629 69.3444C33.2629 69.3444 33.2629 69.3444 33.2629 69.3406C33.2629 69.3368 33.2629 69.3293 33.2667 69.3255C33.3045 69.0766 33.346 68.8277 33.3914 68.5789C33.3989 68.5298 33.4102 68.4808 33.4178 68.4318C33.4707 68.1603 33.5311 67.8926 33.6067 67.6248C28.5484 66.5351 22.6061 61.7423 20.959 60.004C20.8532 59.4836 20.7021 57.0249 20.6719 54.2685C20.6681 53.9253 20.6605 53.586 20.653 53.2504C20.6492 52.8092 20.6417 52.368 20.6341 51.923Z" fill="#0098FC"/>
<path d="M18.6317 48.3937C19.3305 48.6426 20.0219 48.9329 20.6981 49.2685C21.0343 49.4345 21.3705 49.6117 21.7029 49.8002C21.8162 49.8643 21.9031 49.7662 21.9031 49.6644C21.9031 49.6192 21.8918 49.574 21.8578 49.5438C19.5836 47.319 16.535 46.1312 13.4184 45.9615C11.2992 45.8446 9.14965 46.1915 7.18903 47.0211C7.12481 47.0474 7.15126 47.1417 7.21926 47.138C7.90302 47.0927 8.583 47.0626 9.26676 47.0512C9.93541 47.0399 10.6003 47.0437 11.2652 47.0701C12.5269 47.1191 13.7773 47.2398 15.0089 47.4548C16.2404 47.6659 17.4492 47.9714 18.6317 48.3937Z" fill="#0098FC"/>
<path d="M89.7768 10.2454C89.7277 10.219 89.6786 10.185 89.6257 10.17C88.6246 9.87961 87.6462 9.5327 86.6489 9.2348C83.8496 8.39768 81.0201 7.69631 78.1642 7.07035C75.6898 6.52735 73.189 6.11638 70.6768 5.8034C68.9051 5.58469 67.122 5.41874 65.3314 5.39234C63.0685 5.3584 60.8019 5.32824 58.5428 5.48661C54.2401 5.79205 50.0128 6.44066 46.0122 8.15262C45.7365 8.26952 45.4683 8.39391 45.2303 8.57868C45.1094 8.67295 44.9885 8.77478 44.9658 8.97464C45.0829 8.94824 45.1698 8.92941 45.2529 8.90679C47.2249 8.35248 49.1931 7.78687 51.2066 7.41355C54.3421 6.83284 57.504 6.42558 60.7037 6.36525C62.5623 6.33131 64.4172 6.30862 66.2682 6.48962C68.1986 6.67816 70.129 6.8517 72.0557 7.03647C72.5883 7.08549 73.1285 7.11563 73.6574 7.20236C75.2742 7.46632 76.8986 7.66989 78.5079 7.99418C79.9283 8.28077 81.3639 8.49197 82.7843 8.7861C84.6882 9.18204 86.5884 9.60433 88.481 10.0644C88.8966 10.1586 89.3197 10.2755 89.7768 10.2454Z" fill="#0098FC"/>
<path d="M120.028 16.491C119.919 16.4533 119.896 16.5853 119.862 16.6607C119.258 17.9578 118.442 19.108 117.524 20.1978C116.564 21.3366 115.548 22.3848 114.256 23.1616C112.824 24.0214 111.298 24.6172 109.674 24.9415C107.056 25.4619 104.441 25.1602 101.854 24.7303C99.3945 24.3231 96.9881 23.6594 94.593 22.9656C92.3906 22.3283 90.226 21.5629 88.0652 20.7974C87.6496 20.6503 87.2416 20.473 86.7808 20.4315C86.9432 20.5145 87.1019 20.6088 87.2681 20.6767C88.1634 21.0575 89.0474 21.4648 89.9578 21.8004C91.8013 22.4829 93.6259 23.2107 95.5035 23.8065C98.4009 24.7228 101.306 25.6052 104.328 26.035C106.493 26.3442 108.642 26.2726 110.788 25.8503C112.654 25.4807 114.433 24.9189 115.997 23.7876C116.829 23.1881 117.561 22.5017 118.147 21.6646C119.186 20.1789 119.885 18.5499 120.077 16.7324C120.081 16.6494 120.13 16.5249 120.028 16.491Z" fill="#0098FC"/>
<path d="M126.163 11.1504C125.805 8.81252 124.981 6.6518 123.5 4.79654C121.785 2.65094 119.62 1.1577 116.878 0.573221C115.318 0.241387 113.723 0.184828 112.144 0.0113698C112.08 0.00382815 111.99 -0.0225346 111.952 0.0453405C111.899 0.147153 111.997 0.207428 112.054 0.267761C112.673 0.927658 113.353 1.52346 113.992 2.16073C115.514 3.68792 116.051 5.52808 115.556 7.61712C115.238 8.952 114.286 9.74388 112.972 10.0719C111.872 10.3472 110.754 10.3548 109.628 10.2077C108.348 10.038 107.075 9.82687 105.813 9.54406C104.472 9.24617 103.18 8.7861 101.869 8.39016C98.8469 7.48139 95.8399 6.50851 92.8026 5.64876C89.6898 4.76638 86.5543 3.94811 83.3848 3.29198C81.5073 2.90358 79.6222 2.57931 77.7145 2.36437C76.1354 2.18714 74.5564 1.98732 72.9735 1.83649C68.1721 1.38399 63.3744 1.42546 58.5767 1.91944C56.3819 2.14569 54.1833 2.31909 52.0111 2.71126C49.3932 3.18261 46.7563 3.57862 44.1875 4.29508C42.5858 4.74004 41.0709 5.36222 39.7223 6.35395C38.0148 7.60587 36.8777 9.19337 36.4772 11.3277C35.9786 13.9899 35.8388 16.6823 35.6046 19.3671C35.427 21.4034 35.2268 23.4358 35.0342 25.4721C33.1 45.9289 31.162 66.3857 29.2203 86.8425C29.039 88.743 29.1485 90.6058 29.7643 92.4233C29.8512 92.6798 29.9607 92.9211 30.0929 93.1549C30.6596 94.1768 31.0978 95.2703 31.8156 96.2093C32.284 96.8239 32.8846 97.299 33.4173 97.842C34.5506 98.9996 35.9106 99.7953 37.4217 100.35C38.6041 100.783 39.8281 101.036 41.0785 101.157C47.9652 101.813 54.8519 102.461 61.7349 103.11C62.3506 103.166 62.3431 103.17 62.4337 103.781C62.8568 106.696 63.2913 109.607 63.7144 112.522C63.8088 113.171 63.824 113.827 63.9864 114.464C64.3831 116.014 65.3464 117.005 66.899 117.413C66.9368 117.424 66.9746 117.443 67.0085 117.458C67.1861 117.473 67.3636 117.492 67.5412 117.507C67.7792 117.484 68.0134 117.465 68.2514 117.443C69.1052 117.364 69.7965 116.934 70.484 116.459C72.2444 115.248 74.0237 114.068 75.7954 112.876C78.8365 110.833 81.8775 108.785 84.9186 106.741C85.4777 106.364 86.0443 105.995 86.6034 105.614C86.8036 105.478 87.0076 105.425 87.2494 105.485C87.4307 105.531 87.6234 105.546 87.8085 105.565C93.3995 106.093 98.9867 106.624 104.581 107.141C106.773 107.341 108.877 106.926 110.822 105.927C114.339 104.117 116.606 101.281 117.501 97.4084C117.811 96.066 118.045 94.7084 118.072 93.3245C118.075 93.0191 118.121 92.7099 118.151 92.4045C120.251 70.198 122.352 47.9916 124.463 25.7851C124.584 24.4992 124.671 23.2172 124.694 21.9275C124.698 21.6485 124.743 21.3732 124.86 21.1167C125.412 19.8912 125.782 18.6054 126.05 17.2894C126.061 17.2328 126.084 17.1763 126.103 17.1197C126.197 16.1318 126.292 15.1438 126.382 14.1558C126.364 13.1641 126.318 12.1535 126.163 11.1504ZM114.997 98.1777C114.177 100.316 112.855 102.069 110.902 103.332C109.458 104.268 107.91 104.833 106.187 104.912C105.552 104.939 104.914 104.935 104.283 104.875C98.5522 104.339 92.8253 103.804 87.0945 103.253C86.5543 103.2 86.101 103.291 85.6401 103.604C82.8257 105.523 79.9925 107.42 77.163 109.317C74.3335 111.213 71.5002 113.106 68.6669 114.992C67.5903 115.708 66.2908 115.045 66.1321 113.766C65.8866 111.779 65.5806 109.799 65.2972 107.816C65.0252 105.912 64.7532 104.007 64.485 102.103C64.3944 101.466 64.0695 101.13 63.4311 101.032C63.1666 100.991 62.8984 100.976 62.6302 100.949C55.4186 100.27 48.2032 99.6068 40.9916 98.9016C38.521 98.6603 36.3488 97.6988 34.5846 95.9227C32.6996 94.0222 31.5927 91.7445 31.3622 89.0635C31.3396 88.7769 31.3358 88.4866 31.366 88.2038C31.5285 86.6728 31.4907 85.1305 31.6834 83.6033C32.3218 78.5315 32.7713 73.4409 33.2171 68.354C33.8177 61.5024 34.5053 54.6621 35.1361 47.8143C35.1815 47.3015 35.2495 47.2788 35.7557 47.4183C36.7228 47.6898 37.1232 48.3762 37.2328 49.3189C37.433 51.012 37.671 52.7013 37.9505 54.3868C37.9808 54.5716 38.0261 54.7564 38.045 54.9449C38.1999 56.4797 38.8987 57.8221 39.4881 59.2098C41.2485 63.3577 44.3764 66.084 48.4336 67.8676C50.1336 68.6142 51.9091 69.0554 53.7526 69.2214C56.2119 69.4363 58.6107 69.1308 60.9453 68.3352C64.6701 67.0644 67.6394 64.7982 69.8871 61.5779C71.3491 59.4888 72.3918 57.1924 73.2871 54.8206C73.6648 53.8175 74.0464 52.8182 74.5375 51.8642C74.6282 51.6832 74.7528 51.5324 74.9115 51.4117C75.9541 50.6274 77.503 50.7668 78.3907 51.7246C78.6249 51.9773 78.7194 52.2903 78.7836 52.6108C79.1047 54.1644 79.422 55.7218 79.7318 57.2754C80.3098 60.2053 81.2844 62.9882 82.9882 65.4581C84.5144 67.6678 86.3692 69.557 88.7756 70.8466C90.1809 71.6008 91.6315 72.2305 93.1691 72.6453C96.5388 73.5541 99.8782 73.4598 103.199 72.3663C105.137 71.729 106.916 70.7975 108.51 69.5418C109.421 68.8254 110.229 67.9883 111.004 67.1172C112.851 65.0432 113.992 62.5997 114.902 60.0205C115.287 58.9269 115.733 57.8522 116.077 56.7436C116.402 55.7029 117.089 55.2278 118.136 55.1788C118.472 55.1637 118.808 55.1448 119.148 55.1863C119.333 55.2089 119.413 55.3032 119.394 55.4842C119.382 55.6011 119.375 55.7218 119.364 55.8387C118.74 62.4376 118.113 69.0366 117.49 75.6356C116.991 80.8921 116.493 86.1449 115.998 91.4015C115.881 92.6345 115.782 93.8713 115.68 95.1081C115.586 96.164 115.371 97.201 114.997 98.1777ZM40.2436 49.481C40.3267 48.8211 40.61 48.2065 40.7838 47.5655C40.9991 46.7623 41.1654 45.944 41.5318 45.186C42.072 44.0661 42.684 42.9876 43.5151 42.0562C44.4331 41.0268 45.3548 40.0011 46.5108 39.213C48.9927 37.5199 51.7089 36.5847 54.7273 36.4754C57.7268 36.366 60.5147 37.0524 63.0571 38.6022C64.6173 39.5524 66.0603 40.6874 67.1747 42.1656C68.3307 43.6928 69.2638 45.3331 69.7587 47.2109C70.1516 48.6929 70.4916 50.1749 70.45 51.7209C70.4122 53.0332 70.212 54.3227 69.906 55.601C69.4036 57.7052 68.327 59.5077 67.0237 61.1895C66.2946 62.1322 65.3879 62.909 64.4322 63.6292C63.1817 64.5719 61.8444 65.3337 60.3787 65.8616C58.7958 66.431 57.1639 66.725 55.479 66.7401C54.9199 66.7439 54.3684 66.6873 53.7224 66.6496C51.3538 66.4234 49.0683 65.6617 47.0095 64.3079C44.1686 62.4376 42.1476 59.8961 40.9878 56.6909C40.1378 54.3492 39.9263 51.9396 40.2436 49.481ZM84.5295 47.9463C86.0141 45.5066 87.9747 43.542 90.5473 42.1996C92.6326 41.1098 94.8312 40.5102 97.1696 40.4574C100.301 40.3857 103.218 41.106 105.802 42.9462C106.489 43.4364 107.203 43.8926 107.861 44.4205C108.775 45.1634 109.481 46.0948 110.172 47.0488C111.279 48.5722 111.872 50.3219 112.382 52.0905C112.734 53.3047 112.832 54.5792 112.802 55.8613C112.76 57.6034 112.447 59.289 111.838 60.9217C111.072 62.9768 109.885 64.7643 108.344 66.3292C106.912 67.7847 105.239 68.8745 103.361 69.6249C101.544 70.3526 99.6478 70.7825 97.6645 70.7222C97.1167 70.7071 96.5728 70.6656 96.025 70.6392C92.7346 70.2772 89.856 68.9951 87.4005 66.7703C86.5354 65.986 85.761 65.1187 85.115 64.1534C83.5095 61.7627 82.5726 59.1344 82.4857 56.2422C82.3913 53.2896 82.9882 50.4841 84.5295 47.9463ZM122.28 25.77C122.193 26.181 122.167 26.5958 122.125 27.0106C121.611 32.4218 121.147 37.8404 120.572 43.2478C120.331 45.5367 120.127 47.8294 119.896 50.1183C119.855 50.5293 119.851 50.5444 119.443 50.4652C117.936 50.1711 116.568 49.5602 115.352 48.6288C114.925 48.3007 114.63 47.8407 114.298 47.4183C113.009 45.7818 111.491 44.3716 109.98 42.95C109.44 42.4409 108.907 41.9205 108.37 41.4076C108.336 41.3737 108.295 41.3436 108.253 41.3172C106.055 39.7711 103.641 38.7153 100.996 38.2175C99.2889 37.8932 97.5625 37.8669 95.8361 38.0328C94.3855 38.1723 92.9991 38.5644 91.6164 39.0094C89.9618 39.5448 88.5187 40.4537 87.1248 41.4341C86.1539 42.1166 85.2284 42.8708 84.3595 43.6928C83.4075 44.594 82.4178 45.45 81.4544 46.3399C80.6007 47.128 79.6223 47.3392 78.5305 46.9961C77.6239 46.7095 76.6983 46.6718 75.7615 46.7208C75.395 46.7397 75.0286 46.7509 74.6621 46.6868C73.8877 46.5548 73.3286 46.0911 72.8829 45.4877C71.7231 43.9266 70.5936 42.3466 69.3696 40.8345C68.9843 40.3556 68.5461 39.9219 68.1267 39.4694C67.2881 38.5606 66.3399 37.7763 65.3313 37.0674C64.0657 36.1813 62.7095 35.4535 61.2324 34.9746C58.7354 34.1676 56.1779 33.734 53.5486 33.964C51.4256 34.1488 49.3818 34.7031 47.4552 35.6269C46.5335 36.0719 45.6986 36.6752 44.8562 37.256C43.4622 38.21 42.1362 39.2507 40.8556 40.3556C40.2776 40.8533 39.7336 41.4001 39.0158 41.7056C38.0223 42.1279 36.9872 42.3881 35.9144 42.5238C35.6764 42.554 35.6235 42.4559 35.6499 42.2334C35.7293 41.4755 35.7972 40.7138 35.869 39.9521C35.9408 39.2017 36.0163 38.4513 36.0806 37.7009C36.0995 37.4633 36.1901 37.3728 36.4357 37.3954C38.5852 37.5802 40.4627 36.8411 42.0909 35.5289C43.9646 34.0168 44.5426 31.9957 44.0968 29.6577C43.9457 28.8696 43.7757 28.0853 43.6662 27.2897C43.3904 25.2911 44.1649 23.6998 45.6646 22.429C46.8206 21.4486 48.1579 20.7661 49.5632 20.2307C50.2847 19.9554 51.0705 20.0156 51.8335 19.9628C54.0359 19.812 56.2383 19.8234 58.4445 19.8271C59.336 19.8309 60.2314 19.895 61.1229 19.9403C62.5018 20.0119 63.8806 20.1099 65.2519 20.2683C67.0463 20.4757 68.8332 20.7548 70.6162 21.0413C73.4155 21.4901 76.1506 22.2178 78.8705 22.9984C81.7151 23.8129 84.5484 24.6614 87.3892 25.4872C88.6283 25.8492 89.8749 26.1773 91.114 26.543C93.2295 27.169 95.3715 27.6856 97.5058 28.2324C99.372 28.7075 101.234 29.209 103.127 29.5673C104.785 29.8802 106.448 30.1969 108.136 30.2837C109.424 30.3516 110.72 30.4496 112.005 30.3779C114.101 30.2611 116.134 29.85 117.996 28.7829C118.835 28.304 119.658 27.8062 120.414 27.2142C120.996 26.7579 121.54 26.2413 122.012 25.6644C122.076 25.5852 122.14 25.4344 122.25 25.4796C122.378 25.5249 122.299 25.672 122.28 25.77ZM123.364 18.8769C122.571 21.3468 121.268 23.5225 119.299 25.242C117.24 27.0407 114.823 28.0061 112.092 28.172C110.63 28.2625 109.175 28.1041 107.721 27.9721C103.278 27.5611 98.9829 26.4374 94.7103 25.242C89.7653 23.8619 84.8468 22.3951 79.9131 20.9773C78.0432 20.4418 76.177 19.8799 74.2693 19.4877C72.49 19.1257 70.7107 18.7637 68.9125 18.4772C68.1154 18.3489 67.3108 18.315 66.5099 18.2584C65.3464 18.1792 64.2168 17.8851 63.0533 17.8097C60.2389 17.6212 57.4208 17.5458 54.5988 17.6476C53.3182 17.6928 52.0376 17.723 50.7569 17.7645C49.6349 17.8022 48.6112 18.1227 47.6252 18.6167C46.5939 19.1333 45.589 19.6952 44.6597 20.3777C44.1044 20.7849 43.6888 21.3393 43.2129 21.8333C42.8955 22.1613 42.5858 22.4893 42.3516 22.889C41.3807 24.5406 41.222 26.3055 41.5393 28.1532C41.6867 29.0129 41.9096 29.8575 41.9964 30.7286C42.0909 31.6562 41.868 32.5047 41.2674 33.2023C40.1152 34.5485 38.589 35.1405 36.8437 35.1895C36.3375 35.2046 36.3148 35.1443 36.3752 34.6503C36.583 32.9572 36.8588 31.2717 36.9532 29.5673C37.0325 28.1683 37.1874 26.7806 37.3083 25.3854C37.5879 22.1349 37.9128 18.8844 38.1394 15.6302C38.2527 14.0275 38.4681 12.4589 38.9101 10.9166C39.1745 9.98521 39.7223 9.26129 40.4551 8.6391C41.6036 7.66999 42.922 7.04019 44.3424 6.58392C46.2426 5.97304 48.2145 5.71292 50.1638 5.32829C52.7251 4.81923 55.3128 4.44968 57.8854 4.00095C59.846 3.66157 61.818 3.43156 63.8051 3.35237C64.6248 3.31844 65.4521 3.32967 66.2757 3.36738C67.7528 3.43903 69.2374 3.45414 70.7031 3.68039C71.9724 3.87647 73.2531 3.93301 74.5224 4.12155C76.4565 4.40813 78.4021 4.64192 80.3249 4.96621C82.4064 5.3169 84.4653 5.82219 86.5052 6.38028C89.8107 7.28151 93.1313 8.11865 96.433 9.03874C98.1443 9.51386 99.8216 10.1059 101.514 10.6489C103.713 11.3503 105.93 11.9951 108.223 12.2553C109.98 12.4551 111.763 12.7077 113.527 12.2251C115.756 11.6142 117.49 9.9626 117.886 7.63599C118.136 6.17291 117.932 4.77394 117.403 3.40513C117.358 3.28823 117.278 3.17883 117.293 2.98652C118.117 3.29573 118.888 3.63511 119.586 4.11777C121.203 5.23017 122.352 6.72725 123.122 8.51086C123.757 9.98148 124.048 11.5351 124.146 13.1301C124.271 15.1061 123.961 17.0179 123.364 18.8769Z" fill="#0098FC"/>
<path d="M93.7395 59.2736C94.0418 60.4388 94.4838 61.5399 95.2771 62.46C96.1988 63.5234 97.7552 64.0965 99.323 63.0671C99.8859 62.6975 100.369 62.2413 100.759 61.6983C102.066 59.8807 102.681 57.8067 102.987 55.5027C102.923 54.8315 103.074 54.0585 103.025 53.2742C102.953 52.1694 102.798 51.0795 102.462 50.0312C102.111 48.9452 101.624 47.9158 100.747 47.1277C100.124 46.5659 99.4174 46.2529 98.5523 46.3246C97.5815 46.4 96.8335 46.894 96.1762 47.5539C95.262 48.474 94.6802 49.6127 94.2458 50.8043C93.6942 52.3164 93.3353 53.87 93.3429 55.5065C93.3504 56.7811 93.4222 58.0405 93.7395 59.2736Z" fill="#0098FC"/>
<path d="M50.8851 56.2989C51.2553 57.3547 51.8787 58.2447 52.7362 58.9498C53.8393 59.8624 55.4788 59.7153 56.6461 58.6255C57.6887 57.6564 58.4292 56.4837 58.9278 55.1525C59.3887 53.927 59.6683 52.6638 59.7589 51.3855C60.0196 49.2851 59.7023 46.7474 58.9732 45.1146C58.5803 44.236 58.0741 43.4629 57.3148 42.8634C56.3439 42.0941 55.1577 42.0225 54.0848 42.6447C53.0422 43.248 52.3206 44.1417 51.7615 45.1825C51.0929 46.4231 50.6811 47.7542 50.4167 49.1381C50.2278 50.1298 50.156 51.1291 50.1598 52.1246C50.1711 53.5462 50.4129 54.9452 50.8851 56.2989Z" fill="#0098FC"/>
<path d="M87.3967 66.7699C89.8522 68.9947 92.7308 70.2768 96.0212 70.6388C96.5689 70.6652 97.1129 70.7029 97.6607 70.7217C99.644 70.7821 101.54 70.3522 103.357 69.6245C105.235 68.8703 106.908 67.7805 108.34 66.3287C109.881 64.7638 111.068 62.9764 111.835 60.9213C112.443 59.2923 112.756 57.6068 112.798 55.8609C112.828 54.5788 112.726 53.3043 112.379 52.0901C111.869 50.3215 111.272 48.5718 110.169 47.0484C109.477 46.0981 108.771 45.163 107.857 44.4201C107.203 43.8884 106.485 43.4322 105.798 42.9458C103.214 41.1056 100.298 40.3853 97.1658 40.457C94.8274 40.5098 92.6288 41.1132 90.5435 42.1992C87.9709 43.5416 86.0103 45.5062 84.5257 47.9459C82.9844 50.4837 82.3875 53.2854 82.4781 56.238C82.565 59.134 83.5019 61.7585 85.1074 64.1492C85.7572 65.1183 86.5316 65.9856 87.3967 66.7699ZM94.2494 50.8041C94.6839 49.6126 95.2656 48.4738 96.1798 47.5537C96.8371 46.8938 97.5813 46.3998 98.556 46.3244C99.4211 46.2566 100.124 46.5657 100.751 47.1276C101.627 47.9157 102.111 48.9451 102.466 50.0311C102.806 51.0794 102.957 52.1654 103.029 53.2741C103.082 54.0622 102.927 54.8352 102.991 55.5026C102.685 57.8028 102.069 59.8768 100.762 61.6981C100.373 62.2411 99.8895 62.6974 99.3267 63.0669C97.7627 64.0964 96.2025 63.527 95.2807 62.4599C94.4836 61.5398 94.0416 60.4386 93.7432 59.2734C93.4259 58.0366 93.3541 56.7809 93.3466 55.5064C93.339 53.8736 93.6979 52.3162 94.2494 50.8041Z" fill="white"/>
<path d="M47.0057 64.3077C49.0646 65.6652 51.3501 66.4269 53.7187 66.6494C54.3647 66.6871 54.9162 66.7436 55.4753 66.7399C57.1602 66.7286 58.7959 66.4307 60.375 65.8613C61.8445 65.3334 63.1818 64.5716 64.4284 63.6289C65.388 62.9049 66.2908 62.1281 67.0199 61.1892C68.3232 59.5074 69.3999 57.7049 69.9023 55.6008C70.2083 54.3225 70.4085 53.0329 70.4463 51.7207C70.4916 50.1746 70.1479 48.6926 69.755 47.2107C69.2601 45.3366 68.327 43.6963 67.171 42.1653C66.0529 40.6872 64.6135 39.5522 63.0534 38.6019C60.5072 37.0521 57.723 36.3658 54.7235 36.4751C51.7052 36.5845 48.989 37.5234 46.5071 39.2127C45.3511 40.0009 44.4293 41.0265 43.5114 42.056C42.6803 42.9874 42.0645 44.0659 41.5281 45.1858C41.1654 45.9437 40.9954 46.762 40.7801 47.5652C40.6063 48.2063 40.3268 48.8246 40.2399 49.4807C39.9263 51.9393 40.1341 54.3489 40.9841 56.6906C42.1476 59.8958 44.1687 62.4374 47.0057 64.3077ZM50.4208 49.1376C50.6852 47.7537 51.097 46.4264 51.7656 45.182C52.3247 44.145 53.0463 43.2476 54.0889 42.6442C55.1618 42.0221 56.348 42.0974 57.3188 42.8629C58.0781 43.4625 58.5806 44.2356 58.9772 45.1142C59.7063 46.7469 60.0236 49.2847 59.763 51.385C59.6723 52.6633 59.3928 53.9266 58.9319 55.1521C58.4332 56.4832 57.6928 57.6521 56.6502 58.625C55.4791 59.7148 53.8433 59.8619 52.7403 58.9494C51.8827 58.2404 51.2594 57.3505 50.8892 56.2984C50.4132 54.9485 50.1714 53.5495 50.1677 52.1241C50.1601 51.1248 50.2319 50.1256 50.4208 49.1376Z" fill="white"/>
<path d="M122.257 25.4722C122.144 25.4232 122.084 25.5778 122.019 25.657C121.547 26.2377 120.999 26.7505 120.421 27.2068C119.666 27.7988 118.842 28.2965 118.004 28.7754C116.141 29.8426 114.109 30.2536 112.012 30.3705C110.728 30.4422 109.432 30.3403 108.144 30.2762C106.455 30.1895 104.793 29.8728 103.135 29.5598C101.242 29.2016 99.3797 28.7 97.5136 28.2249C95.3792 27.6819 93.2372 27.1615 91.1217 26.5356C89.8826 26.1698 88.636 25.838 87.3969 25.4797C84.5561 24.6539 81.7228 23.8017 78.8782 22.9909C76.1583 22.2142 73.427 21.4864 70.6239 21.0339C68.8409 20.7473 67.054 20.4683 65.2596 20.2609C63.8883 20.1025 62.5094 20.0045 61.1306 19.9328C60.2391 19.8876 59.3475 19.8235 58.4522 19.8197C56.2498 19.8122 54.0437 19.8046 51.8413 19.9554C51.0819 20.0082 50.2924 19.9479 49.5709 20.2232C48.1656 20.7587 46.8283 21.4411 45.6723 22.4215C44.1725 23.6923 43.3981 25.2837 43.6739 27.2822C43.7834 28.0779 43.9534 28.8622 44.1046 29.6503C44.5503 31.9882 43.9723 34.0093 42.0986 35.5214C40.4666 36.8375 38.5929 37.5728 36.4434 37.3881C36.1941 37.3655 36.1072 37.4559 36.0883 37.6934C36.0278 38.4438 35.9485 39.1942 35.8767 39.9446C35.805 40.7063 35.737 41.4681 35.6576 42.226C35.635 42.4447 35.6878 42.5465 35.9221 42.5164C36.9912 42.3806 38.03 42.1205 39.0236 41.6981C39.7413 41.3927 40.2891 40.8459 40.8633 40.3481C42.1439 39.247 43.4699 38.2025 44.8639 37.2485C45.7063 36.6716 46.5411 36.0644 47.4629 35.6195C49.3895 34.6919 51.4295 34.1413 53.5563 33.9566C56.1856 33.7266 58.7431 34.1602 61.2402 34.9671C62.7135 35.4423 64.0734 36.1738 65.3389 37.06C66.3476 37.7651 67.2958 38.5533 68.1344 39.462C68.55 39.9145 68.992 40.3481 69.3773 40.827C70.6013 42.3391 71.7308 43.9229 72.8905 45.4803C73.3363 46.0798 73.8954 46.5474 74.6698 46.6794C75.0363 46.7397 75.4027 46.7322 75.7691 46.7134C76.706 46.6606 77.6316 46.702 78.5382 46.9886C79.63 47.3318 80.6121 47.1206 81.4621 46.3325C82.4254 45.4426 83.419 44.5866 84.3672 43.6854C85.236 42.8633 86.1616 42.1092 87.1324 41.4266C88.5302 40.4462 89.9733 39.5336 91.6241 39.0019C93.0068 38.557 94.3932 38.1648 95.8438 38.0253C97.574 37.8594 99.2966 37.8858 101.004 38.2101C103.649 38.7078 106.062 39.7637 108.261 41.3097C108.303 41.3399 108.344 41.3663 108.378 41.4002C108.915 41.913 109.447 42.4335 109.988 42.9425C111.499 44.3641 113.017 45.7744 114.305 47.4109C114.638 47.8332 114.929 48.2895 115.359 48.6213C116.576 49.5565 117.943 50.1674 119.451 50.4578C119.859 50.537 119.862 50.5257 119.904 50.1109C120.134 47.822 120.338 45.5292 120.58 43.2403C121.154 37.833 121.619 32.4143 122.133 27.0032C122.171 26.5884 122.201 26.1736 122.288 25.7625C122.299 25.672 122.378 25.525 122.257 25.4722Z" fill="white"/>
<path d="M117.479 75.6351C118.102 69.0361 118.729 62.4371 119.352 55.8381C119.364 55.7213 119.371 55.6006 119.383 55.4837C119.401 55.3027 119.322 55.2084 119.137 55.1858C118.801 55.1443 118.465 55.1632 118.125 55.1783C117.074 55.2235 116.391 55.6986 116.066 56.7431C115.722 57.848 115.276 58.9226 114.891 60.02C113.984 62.5992 112.84 65.0427 110.992 67.1167C110.218 67.9878 109.409 68.8249 108.499 69.5413C106.905 70.797 105.126 71.7285 103.188 72.3658C99.867 73.4593 96.5275 73.5536 93.1578 72.6448C91.6202 72.23 90.1696 71.6003 88.7643 70.8461C86.3541 69.5565 84.5031 67.6673 82.9769 65.4576C81.2731 62.9877 80.2985 60.2048 79.7205 57.2749C79.4107 55.7175 79.0934 54.1639 78.7723 52.6103C78.7043 52.2898 78.6136 51.973 78.3794 51.7241C77.4917 50.7663 75.939 50.6269 74.9002 51.4112C74.7377 51.5319 74.6168 51.6827 74.5262 51.8637C74.0389 52.8177 73.6573 53.8208 73.2758 54.82C72.3804 57.1919 71.3378 59.4883 69.8758 61.5774C67.6243 64.7939 64.6589 67.0639 60.934 68.3347C58.5994 69.1303 56.2006 69.4358 53.7413 69.2209C51.8978 69.0587 50.1223 68.6137 48.4223 67.8671C44.3651 66.0835 41.2372 63.3572 39.4768 59.2093C38.8874 57.8216 38.1848 56.4791 38.0337 54.9444C38.0148 54.7559 37.9695 54.5749 37.9392 54.3863C37.6559 52.7045 37.4217 51.0152 37.2215 49.3184C37.1119 48.3756 36.7115 47.6931 35.7444 47.4178C35.2382 47.2745 35.174 47.301 35.1249 47.8138C34.4978 54.6616 33.8064 61.5019 33.2058 68.3535C32.76 73.4442 32.3105 78.5348 31.672 83.6028C31.4794 85.13 31.5209 86.6723 31.3547 88.2033C31.3245 88.4861 31.3283 88.7801 31.351 89.063C31.5814 91.744 32.6845 94.0217 34.5733 95.9222C36.3375 97.6983 38.5134 98.6636 40.9803 98.9011C48.1919 99.6063 55.4073 100.27 62.6189 100.949C62.8871 100.975 63.1553 100.99 63.4198 101.032C64.0582 101.13 64.3831 101.465 64.4737 102.103C64.7457 104.007 65.0177 105.911 65.2859 107.815C65.5693 109.799 65.8753 111.779 66.1208 113.766C66.2795 115.048 67.5828 115.708 68.6557 114.991C71.4927 113.106 74.3222 111.213 77.1517 109.316C79.9812 107.419 82.8107 105.523 85.6288 103.603C86.0897 103.29 86.5392 103.2 87.0832 103.253C92.8102 103.803 98.541 104.342 104.272 104.874C104.903 104.934 105.541 104.938 106.176 104.912C107.898 104.836 109.447 104.267 110.89 103.332C112.843 102.069 114.166 100.311 114.985 98.1771C115.363 97.1967 115.575 96.1597 115.661 95.1076C115.763 93.8708 115.862 92.634 115.979 91.401C116.481 86.1444 116.98 80.8916 117.479 75.6351Z" fill="white"/>
<path d="M123.122 8.51359C122.352 6.72999 121.203 5.23291 119.586 4.12051C118.888 3.64161 118.117 3.30224 117.293 2.98926C117.278 3.18157 117.358 3.29097 117.403 3.40786C117.932 4.77668 118.136 6.17565 117.886 7.63873C117.49 9.96534 115.76 11.6169 113.527 12.2278C111.763 12.7105 109.984 12.4579 108.223 12.258C105.93 11.9978 103.709 11.353 101.514 10.6516C99.8215 10.1124 98.1442 9.52037 96.4329 9.04147C93.135 8.12139 89.8107 7.28424 86.5052 6.38301C84.4615 5.82493 82.4064 5.31964 80.3249 4.96895C78.3983 4.64466 76.4527 4.41087 74.5223 4.12428C73.253 3.93574 71.9724 3.87921 70.7031 3.68313C69.2373 3.45688 67.7565 3.44176 66.2756 3.37012C65.4521 3.32864 64.6248 3.32117 63.805 3.35511C61.818 3.4343 59.846 3.66054 57.8854 4.00368C55.3128 4.44864 52.7251 4.82196 50.1638 5.33103C48.2183 5.71565 46.2426 5.97578 44.3424 6.58665C42.922 7.0467 41.6035 7.67264 40.4551 8.64174C39.7185 9.26016 39.1745 9.98418 38.9101 10.9193C38.4718 12.4616 38.2527 14.0303 38.1394 15.6329C37.9089 18.8871 37.5878 22.1376 37.3083 25.3881C37.1874 26.7833 37.0325 28.1709 36.9532 29.5699C36.8587 31.2743 36.583 32.96 36.3752 34.6531C36.3148 35.1471 36.3374 35.2074 36.8436 35.1923C38.5889 35.1433 40.1114 34.5512 41.2673 33.205C41.868 32.5074 42.0909 31.659 41.9964 30.7313C41.9095 29.8603 41.6866 29.0156 41.5393 28.1558C41.222 26.3081 41.3844 24.5434 42.3515 22.8918C42.5857 22.4921 42.8993 22.1641 43.2128 21.836C43.6888 21.342 44.1044 20.7914 44.6597 20.3804C45.589 19.6979 46.5939 19.1323 47.6252 18.6195C48.6149 18.1255 49.6387 17.805 50.7569 17.7672C52.0375 17.7258 53.3182 17.6956 54.5988 17.6503C57.4207 17.5485 60.2389 17.6239 63.0533 17.8124C64.2168 17.8916 65.3463 18.182 66.5099 18.2612C67.3107 18.3177 68.1154 18.3517 68.9125 18.4799C70.7069 18.7665 72.4862 19.1285 74.2692 19.4905C76.177 19.8789 78.0431 20.4408 79.9131 20.98C84.8468 22.3941 89.7691 23.8609 94.7103 25.2448C98.9829 26.4401 103.278 27.5638 107.721 27.9748C109.175 28.1106 110.626 28.2652 112.091 28.1747C114.823 28.0088 117.24 27.0434 119.299 25.2448C121.271 23.5215 122.571 21.3495 123.364 18.8796C123.961 17.0168 124.271 15.105 124.15 13.1366C124.052 11.5378 123.761 9.98422 123.122 8.51359ZM78.504 7.98562C76.8985 7.66133 75.2703 7.45776 73.6535 7.1938C73.1246 7.10707 72.5882 7.07692 72.0517 7.0279C70.1213 6.8469 68.1909 6.6696 66.2643 6.48106C64.4132 6.30006 62.5584 6.32275 60.6998 6.35668C57.5001 6.41702 54.3419 6.82428 51.2027 7.40499C49.1891 7.7783 47.221 8.34768 45.249 8.89823C45.1659 8.92085 45.079 8.93968 44.9619 8.96607C44.9846 8.76622 45.1055 8.66439 45.2263 8.57012C45.4643 8.38535 45.7326 8.26095 46.0083 8.14406C50.0089 6.42833 54.2399 5.78349 58.5389 5.47805C60.798 5.3159 63.0646 5.34984 65.3274 5.38378C67.1218 5.41017 68.9011 5.57612 70.6729 5.79483C73.185 6.10781 75.6821 6.51878 78.1603 7.06178C81.0124 7.68774 83.8457 8.38534 86.645 9.22624C87.6423 9.52414 88.6245 9.87482 89.6218 10.1614C89.6747 10.1765 89.7238 10.2105 89.7729 10.2369C89.3158 10.2708 88.8927 10.1502 88.4733 10.0483C86.5807 9.58831 84.6843 9.16592 82.7766 8.76998C81.3637 8.4834 79.9244 8.2722 78.504 7.98562ZM120.074 16.7265C119.881 18.544 119.182 20.173 118.143 21.6587C117.558 22.4958 116.825 23.1822 115.994 23.7817C114.43 24.9092 112.651 25.4748 110.784 25.8444C108.639 26.2705 106.489 26.3383 104.325 26.0291C101.302 25.5992 98.3974 24.7169 95.4999 23.8006C93.6224 23.2086 91.7977 22.477 89.9542 21.7945C89.0438 21.4589 88.1598 21.0516 87.2645 20.6708C87.0983 20.5991 86.9396 20.5086 86.7772 20.4256C87.2343 20.4633 87.6423 20.6406 88.0616 20.7915C90.2224 21.5607 92.387 22.3224 94.5894 22.9597C96.9845 23.6498 99.3909 24.3134 101.85 24.7244C104.442 25.1543 107.056 25.456 109.67 24.9356C111.294 24.6113 112.824 24.0155 114.252 23.1558C115.544 22.379 116.564 21.3307 117.52 20.1919C118.438 19.0983 119.258 17.9482 119.858 16.6548C119.892 16.5794 119.915 16.4512 120.025 16.4851C120.13 16.5228 120.081 16.6473 120.074 16.7265Z" fill="white"/>
<path d="M74.5981 86.5037C68.1231 85.8928 61.9579 82.7894 57.674 77.9928C56.9751 77.2123 57.0469 76.0131 57.8289 75.3155C58.6109 74.6179 59.8122 74.6858 60.5111 75.4702C64.1603 79.5615 69.4264 82.2049 74.9569 82.729C80.2873 83.2306 85.8027 81.7335 90.0866 78.615C90.9366 78.0003 92.1228 78.1852 92.7423 79.0298C93.3619 79.8783 93.173 81.0623 92.3268 81.6807C87.2269 85.3875 80.9332 87.1032 74.5981 86.5037Z" fill="#0098FC" stroke="white" stroke-width="2" stroke-miterlimit="10"/>
<path d="M124.38 77.9805C124.38 77.9805 126.092 80.6389 124.626 83.7121C123.16 86.7854 118.771 88.1278 116.277 85.492C113.78 82.8524 124.38 77.9805 124.38 77.9805Z" fill="#0098FC"/>
<path d="M121.774 84.4131C121.725 84.4508 121.676 84.4886 121.627 84.5226C121.68 84.4848 121.729 84.4471 121.774 84.4131Z" fill="#828282"/>
<path d="M122.19 84.0625C122.141 84.1116 122.084 84.1531 122.035 84.2022C122.088 84.1569 122.141 84.1116 122.19 84.0625Z" fill="#828282"/>
<path d="M119.182 75.1307C118.96 74.8742 118.741 74.6216 118.529 74.3727C117.248 72.8681 116.191 71.5144 115.393 70.4398C115.095 69.399 114.831 68.3658 114.596 67.3439C113.471 62.4644 113.017 57.9018 112.893 54.0781C112.318 54.2629 111.733 54.4024 111.136 54.4929C110.524 54.5834 109.908 54.6249 109.292 54.6211C109.383 59.5948 110.086 65.515 112.099 71.7709C112.099 71.7709 115.299 77.5063 122.503 83.7433C123.149 83.0193 123.587 82.118 123.927 81.0509C124.01 80.7907 124.071 80.523 124.12 80.2515C122.258 78.5094 120.599 76.7521 119.182 75.1307Z" fill="white"/>
<path d="M121.631 84.5234C121.487 84.6253 121.34 84.7197 121.181 84.8103C121.34 84.7197 121.487 84.6216 121.631 84.5234Z" fill="url(#paint2_linear_562_3003)"/>
<path d="M122.503 83.7471C122.405 83.8565 122.299 83.9622 122.193 84.0678C122.299 83.9622 122.405 83.8565 122.503 83.7471Z" fill="url(#paint3_linear_562_3003)"/>
<path d="M122.035 84.2031C121.952 84.2748 121.865 84.3466 121.778 84.4145C121.865 84.3466 121.952 84.2748 122.035 84.2031Z" fill="url(#paint4_linear_562_3003)"/>
<path d="M118.552 85.564C118.684 85.5527 118.812 85.5413 118.941 85.5225C118.809 85.5376 118.676 85.5451 118.544 85.5565C118.548 85.5602 118.552 85.5602 118.552 85.564Z" fill="#828282"/>
<path d="M118.552 85.564C118.684 85.5527 118.812 85.5413 118.941 85.5225C118.809 85.5376 118.676 85.5451 118.544 85.5565C118.548 85.5602 118.552 85.5602 118.552 85.564Z" fill="url(#paint5_linear_562_3003)"/>
<path d="M112.099 71.774C110.086 65.5182 109.383 59.5979 109.292 54.6242C108.117 54.6204 106.954 54.4394 105.824 54.1113C105.737 59.6507 106.334 66.7813 108.892 74.0025C110.648 76.4799 114.215 81.152 118.941 85.5224C119.719 85.4244 120.471 85.2057 121.177 84.8098C121.336 84.7193 121.483 84.6212 121.626 84.5232C121.676 84.4893 121.725 84.4515 121.774 84.4138C121.864 84.346 121.948 84.2743 122.031 84.2026C122.084 84.1574 122.136 84.1121 122.186 84.0631C122.295 83.9613 122.397 83.8557 122.495 83.7426C115.299 77.5094 112.099 71.774 112.099 71.774Z" fill="#828282"/>
<path d="M112.099 71.774C110.086 65.5182 109.383 59.5979 109.292 54.6242C108.117 54.6204 106.954 54.4394 105.824 54.1113C105.737 59.6507 106.334 66.7813 108.892 74.0025C110.648 76.4799 114.215 81.152 118.941 85.5224C119.719 85.4244 120.471 85.2057 121.177 84.8098C121.336 84.7193 121.483 84.6212 121.626 84.5232C121.676 84.4893 121.725 84.4515 121.774 84.4138C121.864 84.346 121.948 84.2743 122.031 84.2026C122.084 84.1574 122.136 84.1121 122.186 84.0631C122.295 83.9613 122.397 83.8557 122.495 83.7426C115.299 77.5094 112.099 71.774 112.099 71.774Z" fill="#0098FC"/>
<path d="M112.893 54.0806C113.017 57.9042 113.471 62.467 114.596 67.3465C114.831 68.3646 115.099 69.3978 115.393 70.4423C116.191 71.517 117.248 72.8707 118.529 74.3753C118.74 74.6242 118.96 74.8768 119.182 75.1332C120.599 76.7509 122.257 78.5082 124.12 80.2578L124.124 80.2616C124.271 79.5187 124.324 78.7533 124.377 77.9802C121.154 74.8203 118.62 71.7093 117.029 69.609C115.363 63.5945 114.804 57.8816 114.698 53.334C114.12 53.6319 113.516 53.8807 112.893 54.0806Z" fill="#0098FC"/>
<path d="M108.896 74.0026C106.335 66.7814 105.742 59.6545 105.829 54.1114C105.209 53.9304 104.601 53.7041 104.011 53.4326C103.872 58.7797 104.351 65.6879 106.629 72.8902C106.837 73.5501 107.06 74.21 107.302 74.8699C107.404 75.0169 107.513 75.1715 107.63 75.3337C108.711 76.8533 110.354 79.0329 112.458 81.4424C113.599 82.7471 114.88 84.1197 116.278 85.4923C117.048 85.5866 117.808 85.6168 118.552 85.5602C118.684 85.5489 118.816 85.5414 118.948 85.5263C114.219 81.1521 110.653 76.4762 108.896 74.0026Z" fill="#0098FC"/>
<path d="M120.939 35.744C119.961 37.8292 116.576 39.5374 116.576 39.5374C116.576 39.5374 113.463 37.7651 114.819 31.1888C116.051 25.2346 118.367 20.9735 121.838 19.3973C121.249 18.7224 120.206 18.0248 119.409 17.5874C118.299 16.9765 117.075 16.5994 116.009 16.2939C115.175 16.622 114.442 17.0104 113.588 17.8325C112.859 18.5376 112.254 19.3823 111.665 20.2006C111.529 20.3929 111.359 20.6379 111.174 20.9094C110.702 21.5957 110.112 22.4517 109.693 22.9156C109.655 22.9533 109.629 22.9948 109.61 23.0249C109.58 23.0702 109.542 23.123 109.489 23.1494L108.246 25.3101L104.31 25.9925C99.2592 26.9088 96.3919 28.3455 94.7788 29.5786C94.7259 29.6163 94.522 28.6812 94.9828 27.3236C95.6288 25.4156 97.121 22.859 98.0768 22.5649C101.303 21.5769 106.172 20.0875 106.637 19.9442C107.513 19.6689 109.013 19.7254 110.037 19.8084C110.252 19.4011 110.494 18.9977 110.751 18.6055C108.564 18.0851 106.195 18.8506 103.891 19.601C103.135 19.8461 102.357 20.0988 101.598 20.3024L101.492 20.3325C100.381 20.6304 99.2327 20.9359 98.1372 21.3205C96.9246 22.3613 96.0217 23.4171 95.2964 24.6464C94.0044 26.841 93.3055 29.4693 93.2791 32.2522C93.2564 34.5675 93.7324 36.9657 94.6882 39.3866C95.9839 42.6521 97.9294 45.4463 99.4783 47.5165L99.5047 47.6108C99.5198 47.6334 99.5236 47.656 99.5349 47.6786C100.974 48.9833 102.089 50.503 103.864 51.4872C105.946 52.6449 108.397 53.1917 110.77 52.8485C113.048 52.5205 115.152 51.3892 116.773 49.7752C118.329 48.2292 119.051 46.6266 119.7 44.7186C119.349 44.9599 118.986 45.19 118.62 45.4049C118.601 45.4615 118.578 45.518 118.559 45.5783C118.053 47.3092 116.485 49.3831 114.793 50.5521C114.891 49.4547 114.691 48.0444 113.705 47.1206C112.481 47.2224 111.227 47.064 109.965 46.5436C109.689 46.4305 109.614 46.2759 109.686 45.9855C109.757 45.6876 110.101 45.6387 110.407 45.6651C113.652 45.9667 117.105 44.6884 120.388 41.9621C122.333 40.3519 124.097 38.4552 125.117 36.8903C125.106 36.7659 125.095 36.649 125.083 36.5321C123.727 35.5668 121.593 34.3601 120.939 35.744Z" fill="white"/>
<path d="M114.796 50.5446C116.489 49.3757 118.057 47.3017 118.563 45.5709C118.582 45.5106 118.601 45.4578 118.623 45.3975C117.078 46.3062 115.42 46.9661 113.708 47.1131C114.694 48.037 114.891 49.4473 114.796 50.5446Z" fill="#DDDDDD"/>
<path d="M121.287 29.8719C121.117 30.396 120.977 30.8712 120.773 31.3199L120.72 31.4331L120.614 31.4971C120.399 31.6329 120.161 31.7649 119.87 31.9195L119.802 31.9534C119.704 32.0024 119.602 32.0553 119.496 32.1005C119.02 32.3154 118.537 32.4701 118.064 32.5719C118.049 32.7265 118.03 32.8773 118.015 33.0281C117.868 34.3819 117.713 35.7808 117.35 37.1157C117.282 37.357 117.052 37.5343 116.799 37.5305C116.557 37.5305 116.353 37.3721 116.293 37.1345C115.771 35.1775 115.991 33.0244 116.364 31.0598L116.357 31.0258L116.372 31.022C116.436 30.6902 116.504 30.3621 116.572 30.0453C117.207 27.1342 118.004 25.0377 119.081 23.4426C119.088 23.4313 119.1 23.42 119.107 23.4087C119.115 23.4012 119.122 23.3936 119.13 23.3861C119.262 23.2465 119.466 23.2013 119.651 23.2767C119.859 23.3634 119.984 23.586 119.942 23.8047C119.734 24.8907 119.447 25.9691 119.171 27.0099C118.88 28.1034 118.578 29.2346 118.374 30.3697C118.363 30.4262 118.355 30.479 118.348 30.5356C118.839 30.3546 119.236 30.166 119.322 30.0718C119.78 28.899 120.116 27.764 120.471 26.5649L120.493 26.4857C120.633 26.0143 120.773 25.543 120.924 25.0641C121.419 23.469 121.933 21.8249 121.929 20.1733V19.932C121.929 19.7208 121.929 19.668 121.887 19.4418C121.876 19.4267 121.857 19.4116 121.846 19.3965C118.374 20.9765 116.058 25.2338 114.827 31.1879C113.467 37.768 116.584 39.5366 116.584 39.5366C116.584 39.5366 119.968 37.8246 120.947 35.7431C121.597 34.3554 123.735 35.5659 125.091 36.5275C124.966 35.2756 124.804 34.28 123.912 32.8848C123.236 31.8478 122.265 30.7392 121.287 29.8719Z" fill="#DDDDDD"/>
<path d="M106.637 19.9399C106.172 20.087 101.299 21.5765 98.0766 22.5607C97.1208 22.851 95.6324 25.4114 94.9827 27.3194C94.5218 28.6807 94.7258 29.6158 94.7786 29.5744C96.3917 28.3413 99.259 26.9046 104.31 25.9883L108.246 25.3058L109.489 23.1452C109.436 23.1716 109.364 23.1715 109.262 23.1112C108.998 22.9528 109.16 21.8329 109.206 21.6971C109.41 21.0862 109.693 20.4414 110.037 19.8004C109.013 19.7212 107.513 19.6647 106.637 19.9399Z" fill="#DDDDDD"/>
<path d="M126.813 35.2421C126.228 32.4328 124.377 29.7933 121.906 28.0436C122.224 27.0557 122.507 26.0564 122.783 25.1061L122.801 25.0345C122.9 24.7027 122.994 24.3746 123.089 24.054C123.395 23.0208 123.757 21.2787 123.787 19.744C123.799 19.299 123.723 18.8956 123.723 18.8956L123.648 18.8051C123.157 18.2168 122.356 17.4664 121.698 16.9573C120.539 16.0523 119.213 15.3321 117.864 14.8833C117.105 14.6307 116.361 14.4685 115.65 14.4082H115.56L115.503 14.4233C114.997 14.5666 114.842 14.6609 114.347 14.955C113.637 15.3736 112.942 15.9392 112.284 16.6331C112.198 16.7236 112.114 16.8291 112.028 16.9234C109.387 15.7997 106.448 16.682 103.849 17.5191C103.365 17.6737 102.92 17.8171 102.53 17.9264C102.172 18.0282 101.798 18.1339 101.412 18.2394L100.638 18.4543C99.4327 18.7937 98.1974 19.167 96.8336 19.7138L96.7317 19.7741C96.3955 20.0569 96.0743 20.3662 95.7646 20.6905C95.5568 20.9092 95.3566 21.1354 95.1639 21.3692C94.941 21.6407 94.7219 21.9272 94.5104 22.2251C92.6933 24.7931 91.3333 28.2246 91.1822 31.3318C90.8762 37.6253 94.091 44.0923 98.6545 48.1347C99.478 50.186 101.684 52.2863 103.66 53.2705C103.773 53.3271 103.894 53.376 104.011 53.4288C104.601 53.7003 105.209 53.9266 105.828 54.1076C106.954 54.4357 108.121 54.6167 109.296 54.6205C109.912 54.6243 110.528 54.5827 111.14 54.4922C111.737 54.4017 112.322 54.2623 112.896 54.0775C113.52 53.8777 114.124 53.6287 114.706 53.3308C116.043 52.6483 117.263 51.7245 118.283 50.6347C119.84 48.968 121.324 46.0191 121.177 43.6247C121.653 43.2476 122.11 42.863 122.552 42.4746C123.916 41.2755 124.864 40.1329 125.714 39.0884C126.198 38.5002 126.609 37.9081 126.942 37.3312L126.995 37.218L126.999 37.1351C127.01 36.5204 126.949 35.8831 126.813 35.2421ZM125.121 36.89C124.101 38.4549 122.333 40.3478 120.391 41.9618C117.109 44.6881 113.656 45.9664 110.411 45.6647C110.108 45.6383 109.765 45.6873 109.689 45.9852C109.617 46.2718 109.693 46.4264 109.969 46.5433C111.23 47.0674 112.485 47.2258 113.709 47.1202C115.42 46.9769 117.078 46.3133 118.623 45.4046C118.99 45.1896 119.349 44.9596 119.704 44.7183C119.05 46.6263 118.333 48.2289 116.776 49.7749C115.152 51.3888 113.048 52.5201 110.773 52.8482C108.401 53.1914 105.949 52.6445 103.868 51.4869C102.092 50.5027 100.978 48.983 99.5385 47.6783C99.5272 47.6557 99.5234 47.6293 99.5083 47.6105L99.4818 47.5162C97.9292 45.446 95.9837 42.6518 94.6917 39.3862C93.7359 36.9691 93.26 34.5671 93.2826 32.2518C93.3091 29.469 94.0079 26.8369 95.2999 24.6461C96.0214 23.4168 96.9243 22.3572 98.1407 21.3202C99.2363 20.9356 100.385 20.6301 101.495 20.3322L101.601 20.3021C102.36 20.0984 103.142 19.8458 103.894 19.6007C106.199 18.854 108.567 18.0848 110.754 18.6052C110.498 18.9974 110.26 19.4008 110.04 19.8081C109.7 20.4491 109.413 21.0939 109.209 21.7048C109.16 21.8406 109.002 22.9605 109.266 23.1189C109.368 23.1792 109.436 23.1792 109.493 23.1528C109.546 23.1265 109.583 23.0736 109.614 23.0284C109.636 22.9982 109.663 22.9567 109.697 22.919C110.12 22.4552 110.705 21.5992 111.178 20.9129C111.363 20.6414 111.533 20.3963 111.669 20.204C112.258 19.382 112.866 18.5373 113.591 17.8359C114.445 17.0139 115.178 16.6255 116.013 16.2974C117.078 16.6028 118.302 16.98 119.413 17.5909C120.21 18.0283 121.253 18.7258 121.842 19.4008C121.853 19.4159 121.872 19.431 121.884 19.4461C121.925 19.6686 121.925 19.7251 121.925 19.9363V20.1776C121.929 21.8292 121.415 23.4771 120.92 25.0684C120.769 25.551 120.629 26.0224 120.49 26.49L120.467 26.5692C120.112 27.7683 119.776 28.9033 119.318 30.0761C119.232 30.1703 118.839 30.3551 118.344 30.5399C118.351 30.4833 118.363 30.4305 118.37 30.374C118.574 29.2389 118.876 28.1077 119.167 27.0142C119.447 25.9697 119.734 24.895 119.938 23.809C119.98 23.5903 119.859 23.3677 119.647 23.281C119.466 23.2056 119.258 23.2508 119.126 23.3904C119.118 23.3979 119.111 23.4055 119.103 23.413C119.096 23.4243 119.084 23.4356 119.077 23.4469C118 25.042 117.203 27.1385 116.568 30.0496C116.5 30.3664 116.432 30.6945 116.368 31.0263L116.353 31.0301L116.361 31.0641C115.987 33.0287 115.767 35.1855 116.289 37.1388C116.353 37.3726 116.553 37.531 116.795 37.5348C117.048 37.5348 117.282 37.3613 117.347 37.12C117.713 35.7851 117.864 34.3862 118.011 33.0324C118.027 32.8816 118.045 32.727 118.061 32.5762C118.533 32.4781 119.016 32.3198 119.492 32.1048C119.594 32.0596 119.696 32.0067 119.798 31.9577L119.866 31.9238C120.161 31.773 120.395 31.6372 120.61 31.5014L120.716 31.4374L120.769 31.3242C120.973 30.8755 121.113 30.4003 121.283 29.8762C122.261 30.7435 123.236 31.8483 123.905 32.8929C124.796 34.2843 124.959 35.2799 125.083 36.5356C125.098 36.6487 125.11 36.7656 125.121 36.89Z" fill="#0098FC"/>
<defs>
<linearGradient id="paint0_linear_562_3003" x1="14.9893" y1="68.5096" x2="33.45" y2="68.5096" gradientUnits="userSpaceOnUse">
<stop stop-color="#5B5B5B"/>
<stop offset="1" stop-color="#3C3C3C"/>
</linearGradient>
<linearGradient id="paint1_linear_562_3003" x1="15.007" y1="72.9255" x2="33.45" y2="72.9255" gradientUnits="userSpaceOnUse">
<stop stop-color="#5B5B5B"/>
<stop offset="1" stop-color="#3C3C3C"/>
</linearGradient>
<linearGradient id="paint2_linear_562_3003" x1="111.881" y1="87.1212" x2="122.669" y2="84.2794" gradientUnits="userSpaceOnUse">
<stop stop-color="#5B5B5B"/>
<stop offset="1" stop-color="#3C3C3C"/>
</linearGradient>
<linearGradient id="paint3_linear_562_3003" x1="111.752" y1="86.6412" x2="122.541" y2="83.7983" gradientUnits="userSpaceOnUse">
<stop stop-color="#5B5B5B"/>
<stop offset="1" stop-color="#3C3C3C"/>
</linearGradient>
<linearGradient id="paint4_linear_562_3003" x1="111.825" y1="86.9099" x2="122.612" y2="84.0686" gradientUnits="userSpaceOnUse">
<stop stop-color="#5B5B5B"/>
<stop offset="1" stop-color="#3C3C3C"/>
</linearGradient>
<linearGradient id="paint5_linear_562_3003" x1="111.925" y1="87.2864" x2="122.716" y2="84.4465" gradientUnits="userSpaceOnUse">
<stop stop-color="#5B5B5B"/>
<stop offset="1" stop-color="#3C3C3C"/>
</linearGradient>
</defs>
</svg>
