<svg width="1280" height="720" viewBox="0 0 1280 720" fill="none" xmlns="http://www.w3.org/2000/svg">
<g clip-path="url(#clip0_383_45564)">
<rect width="1280" height="720" fill="#F2F2F2"/>
<path d="M1321.4 945.7C1186.61 1051.21 1007.7 1047.47 921.726 937.643C835.753 827.817 875.078 653.237 1009.86 547.728C1144.64 442.22 1323.56 445.959 1409.53 555.785C1495.5 665.611 1456.18 840.191 1321.4 945.7Z" stroke="#EA1D2C"/>
<path d="M1041.5 60C1041.5 161.315 954.002 243.5 846 243.5C737.998 243.5 650.5 161.315 650.5 60C650.5 -41.315 737.998 -123.5 846 -123.5C954.002 -123.5 1041.5 -41.315 1041.5 60Z" stroke="#EA1D2C"/>
<path d="M658.881 454.896C723.977 454.896 776.762 402.111 776.762 337.015C776.762 271.919 723.977 219.134 658.881 219.134C593.785 219.134 541 271.919 541 337.015C541 402.111 593.769 454.896 658.881 454.896Z" fill="#F9EAEA"/>
<path d="M639.297 458.094H561.221C550.106 458.094 541 449.019 541 437.92V274.672C541 263.583 550.096 254.498 561.221 254.498H639.307C650.422 254.498 659.528 263.573 659.528 274.672V437.92C659.518 449.009 650.422 458.094 639.297 458.094Z" stroke="#D0ADAD" stroke-width="2"/>
<path d="M610.787 273.815H589.672C589.003 273.815 588.461 273.267 588.461 272.612C588.461 271.956 589.003 271.408 589.672 271.408H610.787C611.456 271.408 611.998 271.956 611.998 272.612C611.998 273.261 611.452 273.815 610.787 273.815Z" fill="#D0ADAD" stroke="#D0ADAD" stroke-width="4"/>
<path fill-rule="evenodd" clip-rule="evenodd" d="M617.623 381.965H578.329L610.403 389.663L609.078 395.636L572.435 386.841V380.711C572.435 379.583 573.315 378.668 574.4 378.668C574.4 378.668 620.467 378.668 621.552 378.668C622.637 378.668 623.517 379.583 623.517 380.711V383.69C623.517 391.574 616.465 397.409 609.078 395.636L610.403 389.663C614.097 390.549 617.623 387.632 617.623 383.69V381.965Z" fill="#D0ADAD"/>
<path fill-rule="evenodd" clip-rule="evenodd" d="M609.078 395.636C610.074 395.875 611.065 395.976 612.032 395.952C618.239 395.797 623.517 390.511 623.517 383.69V380.711C623.517 380.122 623.277 379.591 622.894 379.218C622.542 378.877 622.071 378.668 621.552 378.668H574.4C573.881 378.668 573.41 378.877 573.059 379.218C572.675 379.591 572.435 380.122 572.435 380.711V386.841L577 387.937C576.999 387.937 577.001 387.937 577 387.937L609.078 395.636ZM610.403 389.663C612.454 390.154 614.456 389.473 615.828 388.095C616.688 387.231 617.302 386.093 617.528 384.798C617.59 384.44 617.623 384.07 617.623 383.69V381.965H578.329L610.403 389.663Z" fill="#D0ADAD"/>
<path fill-rule="evenodd" clip-rule="evenodd" d="M621.552 370.495V329.628C621.552 326.242 618.913 323.498 615.658 323.498H584.223C580.968 323.498 578.329 326.242 578.329 329.628V376.625H615.658C618.913 376.625 621.552 373.88 621.552 370.495ZM627.446 329.628V370.495C627.446 377.266 622.168 382.755 615.658 382.755H572.435V329.628C572.435 322.857 577.713 317.368 584.223 317.368H615.658C622.168 317.368 627.446 322.857 627.446 329.628Z" fill="#D0ADAD"/>
<path d="M588.151 340.866C588.151 339.173 589.47 337.801 591.098 337.801H608.78C610.407 337.801 611.727 339.173 611.727 340.866C611.727 342.559 610.407 343.931 608.78 343.931H591.098C589.47 343.931 588.151 342.559 588.151 340.866Z" fill="#D0ADAD"/>
<path d="M588.151 357.213C588.151 355.52 589.47 354.148 591.098 354.148H600.921C602.549 354.148 603.868 355.52 603.868 357.213C603.868 358.906 602.549 360.278 600.921 360.278H591.098C589.47 360.278 588.151 358.906 588.151 357.213Z" fill="#D0ADAD"/>
<rect x="671.29" y="144.476" width="199.777" height="143.319" rx="7" fill="#FF4E4E"/>
<circle cx="741.575" cy="215.381" r="8.03589" fill="white"/>
<circle cx="773.719" cy="215.381" r="8.03589" fill="white"/>
<circle cx="805.863" cy="215.381" r="8.03589" fill="white"/>
<path d="M749.463 283.451H709.136C709.136 300.823 695.693 315.3 693.005 318.195C718.814 311.246 741.398 292.137 749.463 283.451Z" fill="#FF4E4E"/>
<rect width="141.254" height="88.5774" rx="5" transform="matrix(-1 0 0 1 821.229 348.596)" fill="#FF898C"/>
<ellipse rx="6.42764" ry="6.69308" transform="matrix(-1 0 0 1 774.637 392.101)" fill="white"/>
<ellipse rx="6.42764" ry="6.69308" transform="matrix(-1 0 0 1 748.926 392.102)" fill="white"/>
<ellipse rx="6.42764" ry="6.69308" transform="matrix(-1 0 0 1 723.215 392.102)" fill="white"/>
<path d="M776.622 434.404H799.634C799.634 445.477 807.304 454.703 808.838 456.549C794.111 452.12 781.225 439.941 776.622 434.404Z" fill="#FF898C"/>
</g>
<defs>
<clipPath id="clip0_383_45564">
<rect width="1280" height="720" fill="white"/>
</clipPath>
</defs>
</svg>
