<?xml version="1.0" encoding="UTF-8"?><svg id="a" xmlns="http://www.w3.org/2000/svg" viewBox="0 0 268.07 268.07"><defs><style>.b{fill:#fff;}.c{fill:#ea1d2c;}</style></defs><circle class="c" cx="134.04" cy="134.04" r="134.04"/><path class="b" d="M85.94,135.57c31.27,0,52.98-28.33,52.98-51.51,0-17.29-15.82-24.65-31.27-24.65-34.23,0-52.98,30.56-52.98,51.51,0,17.29,16.19,24.65,31.27,24.65m83.9,0c31.27,0,52.98-28.33,52.98-51.51,0-17.29-16.19-24.65-31.64-24.65-34.22,0-52.98,30.54-52.98,51.51,0,17.29,16.56,24.65,31.64,24.65m14.34,53.35c-20.56,17.04-46.97,25.36-73.58,23.18-34.96-2.21-59.97-29.07-64.39-57.4h1.47c8.09,17.68,27.6,34.22,51.51,36.79,24.27,2.94,53.35-8.09,69.17-23.18l-17.66-13.61h53.35l-11.79,56.66-7.73-22.08-.35-.37Z"/></svg>